<?xml version="1.0" encoding="UTF-8"?>
<svg id="Layer_1" data-name="Layer 1" xmlns="http://www.w3.org/2000/svg" viewBox="0 0 337.77 160.33">
  <defs>
    <style>
      .cls-1 {
        fill: #07f;
      }

      .cls-2 {
        fill: #f5a467;
      }

      .cls-3 {
        fill: #1f2150;
      }

      .cls-4 {
        fill: #1a1a1a;
      }
    </style>
  </defs>
  <g>
    <g>
      <path class="cls-4" d="m134.2,18.01c0,1.27-.14,2.38-.42,3.33s-.75,1.75-1.4,2.4c-.58.58-1.31,1.03-2.2,1.36-.89.33-1.93.47-3.13.43-2.26-.02-4-.64-5.24-1.85-.6-.62-1.06-1.36-1.39-2.23-.33-.87-.47-1.86-.43-2.98h4.23c0,.97.21,1.76.62,2.39.41.63,1.17.95,2.27.97,1.08.02,1.83-.29,2.26-.93.42-.64.64-1.44.64-2.4V4.88h4.2v13.14Z"/>
      <path class="cls-4" d="m142.39,21.46l-1.48,3.91h-4.57l7.93-20.49h4.75l7.81,20.49h-4.6l-1.42-3.91h-8.42Zm1.22-3.7h5.96l-2.95-8.45-3.01,8.45Z"/>
      <path class="cls-4" d="m163.95,4.88l6.13,9.64,6.11-9.64h4.46v20.49h-4.17v-14.12l-5.53,8.83h-1.88l-5.53-8.83v14.12h-4.14V4.88h4.54Z"/>
      <path class="cls-4" d="m185.36,25.36V4.88h9.09c.94,0,1.82.1,2.62.29.8.19,1.5.54,2.1,1.04.48.39.89.89,1.23,1.52.34.63.51,1.38.51,2.27.02.95-.15,1.78-.51,2.52-.36.73-.96,1.35-1.81,1.85.6.17,1.11.43,1.53.78.42.35.77.75,1.03,1.22.26.46.45.96.56,1.5.12.54.16,1.1.14,1.68-.04.93-.28,1.78-.74,2.56-.45.78-1.05,1.41-1.78,1.9-.87.6-1.82.97-2.86,1.13-1.04.15-2.07.23-3.1.23h-8.02Zm7.9-12.18c.42,0,.85-.02,1.27-.07s.82-.18,1.19-.39c.31-.19.57-.45.78-.78.21-.33.33-.71.35-1.16.02-.46-.06-.84-.23-1.13-.17-.29-.39-.51-.64-.67-.31-.19-.67-.3-1.07-.33-.41-.03-.82-.04-1.24-.04h-4.11v4.57h3.7Zm-3.7,8.48h3.82c.56,0,1.15-.03,1.78-.1s1.16-.27,1.61-.59c.27-.21.49-.48.67-.8.17-.32.26-.72.26-1.2,0-.44-.1-.82-.29-1.13-.19-.31-.43-.54-.72-.69-.33-.21-.7-.34-1.11-.38-.41-.04-.84-.06-1.29-.06l-4.72.03v4.92Z"/>
      <path class="cls-4" d="m217.83,4.88h4.75l-7.58,12.82v7.67h-4.2v-7.61l-7.67-12.88h4.83l4.98,8.85,4.89-8.85Z"/>
      <path class="cls-4" d="m229.38,21.66h10.04v3.7h-14.21V4.88h4.17v16.78Z"/>
      <path class="cls-4" d="m125.46,60.09h-4.2v-20.49h4.2v20.49Z"/>
      <path class="cls-4" d="m134.23,39.6l9.72,13.72v-13.72h4.11v20.49h-4.02l-9.72-13.66v13.66h-4.11v-20.49h4.02Z"/>
      <path class="cls-4" d="m156.83,39.6l9.72,13.72v-13.72h4.11v20.49h-4.02l-9.72-13.66v13.66h-4.11v-20.49h4.02Z"/>
      <path class="cls-4" d="m184.44,39.34c1.56,0,2.97.25,4.22.75,1.25.5,2.32,1.21,3.18,2.13.87.92,1.53,2.01,2,3.28.46,1.27.69,2.68.69,4.22s-.23,2.9-.69,4.2c-.46,1.29-1.13,2.41-2,3.36-.87.95-1.93,1.68-3.2,2.21-1.26.53-2.7.79-4.3.77-1.6,0-3.02-.26-4.27-.8-1.24-.53-2.3-1.26-3.15-2.18-.86-.93-1.51-2.03-1.97-3.3-.45-1.27-.68-2.66-.68-4.17s.24-2.96.71-4.24c.47-1.28,1.15-2.39,2.03-3.31.88-.93,1.94-1.64,3.2-2.16,1.25-.51,2.66-.77,4.23-.77Zm-5.85,10.42c0,.89.12,1.73.36,2.53.24.8.6,1.51,1.07,2.13.47.62,1.08,1.11,1.81,1.49.73.38,1.59.57,2.58.59.94.02,1.78-.15,2.52-.51.73-.36,1.34-.85,1.82-1.48.48-.63.85-1.35,1.1-2.17.25-.82.38-1.67.38-2.56s-.12-1.71-.36-2.52c-.24-.81-.6-1.53-1.07-2.16-.47-.63-1.08-1.12-1.81-1.49-.73-.37-1.59-.55-2.57-.55s-1.81.18-2.55.55c-.73.37-1.34.86-1.82,1.48-.48.62-.84,1.33-1.08,2.13-.24.8-.36,1.64-.36,2.53Z"/>
      <path class="cls-4" d="m210.86,39.6h4.54l-7.78,20.49h-4.51l-7.78-20.49h4.66l5.47,15.48,5.41-15.48Z"/>
      <path class="cls-4" d="m220.47,56.18l-1.48,3.91h-4.57l7.93-20.49h4.75l7.81,20.49h-4.6l-1.42-3.91h-8.42Zm1.22-3.7h5.96l-2.95-8.45-3.01,8.45Z"/>
      <path class="cls-4" d="m234.04,43.33v-3.73h17.04v3.73h-6.42v16.75h-4.2v-16.75h-6.42Z"/>
      <path class="cls-4" d="m258.03,60.09h-4.2v-20.49h4.2v20.49Z"/>
      <path class="cls-4" d="m271.8,39.34c1.56,0,2.97.25,4.22.75,1.25.5,2.32,1.21,3.18,2.13.87.92,1.53,2.01,2,3.28.46,1.27.69,2.68.69,4.22s-.23,2.9-.69,4.2c-.46,1.29-1.13,2.41-2,3.36s-1.93,1.68-3.2,2.21c-1.26.53-2.7.79-4.3.77-1.6,0-3.02-.26-4.27-.8-1.24-.53-2.3-1.26-3.15-2.18-.86-.93-1.51-2.03-1.97-3.3-.45-1.27-.68-2.66-.68-4.17s.24-2.96.71-4.24c.47-1.28,1.15-2.39,2.03-3.31.88-.93,1.94-1.64,3.2-2.16,1.25-.51,2.66-.77,4.23-.77Zm-5.85,10.42c0,.89.12,1.73.36,2.53.24.8.6,1.51,1.07,2.13.47.62,1.08,1.11,1.81,1.49.73.38,1.59.57,2.58.59.94.02,1.78-.15,2.52-.51.73-.36,1.34-.85,1.82-1.48.48-.63.85-1.35,1.1-2.17.25-.82.38-1.67.38-2.56s-.12-1.71-.36-2.52c-.24-.81-.6-1.53-1.07-2.16-.47-.63-1.08-1.12-1.81-1.49-.73-.37-1.59-.55-2.57-.55s-1.81.18-2.55.55c-.73.37-1.34.86-1.82,1.48-.48.62-.84,1.33-1.08,2.13-.24.8-.36,1.64-.36,2.53Z"/>
      <path class="cls-4" d="m289.54,39.6l9.72,13.72v-13.72h4.11v20.49h-4.02l-9.72-13.66v13.66h-4.11v-20.49h4.02Z"/>
      <path class="cls-4" d="m125.46,82.83h9.06v-8.51h4.2v20.49h-4.2v-8.25h-9.06v8.25h-4.2v-20.49h4.2v8.51Z"/>
      <path class="cls-4" d="m147.66,94.81h-4.2v-20.49h4.2v20.49Z"/>
      <path class="cls-4" d="m155.62,84.54c0,.89.11,1.73.33,2.53.22.8.56,1.5,1.03,2.11.46.61,1.05,1.1,1.77,1.46.71.37,1.56.56,2.55.58.6.02,1.18-.05,1.75-.2.57-.15,1.07-.39,1.52-.71.44-.32.81-.73,1.09-1.23.28-.5.45-1.09.51-1.77h-5.15v-3.39h9.26c.02.73,0,1.49-.03,2.26-.04.77-.14,1.52-.3,2.26-.16.73-.4,1.44-.72,2.13-.32.69-.74,1.3-1.26,1.84-.73.77-1.65,1.39-2.75,1.87-1.1.47-2.42.71-3.96.71s-3.02-.26-4.27-.77c-1.24-.51-2.29-1.23-3.13-2.16s-1.48-2.03-1.91-3.3c-.43-1.27-.65-2.67-.65-4.2s.22-2.99.65-4.28c.43-1.29,1.08-2.4,1.92-3.31.85-.92,1.9-1.63,3.14-2.14,1.24-.51,2.67-.77,4.27-.77,1.1,0,2.15.14,3.15.43,1,.29,1.89.72,2.66,1.3.77.58,1.41,1.3,1.91,2.17.5.87.8,1.88.9,3.04h-4.05c-.19-.98-.73-1.77-1.61-2.37-.88-.6-1.92-.88-3.14-.84-.97.04-1.79.25-2.49.62s-1.26.87-1.71,1.49c-.44.62-.77,1.33-.97,2.13-.2.8-.3,1.63-.3,2.5Z"/>
      <path class="cls-4" d="m178.1,82.83h9.06v-8.51h4.2v20.49h-4.2v-8.25h-9.06v8.25h-4.2v-20.49h4.2v8.51Z"/>
      <path class="cls-4" d="m207.5,84.51c0,.87.11,1.71.33,2.52s.56,1.52,1.01,2.14c.45.62,1.03,1.11,1.74,1.49.7.38,1.55.56,2.53.56,1.23,0,2.25-.27,3.05-.82.8-.55,1.3-1.32,1.49-2.3h4.05c-.1,1.14-.4,2.14-.9,3-.5.86-1.15,1.58-1.94,2.16-.79.58-1.69,1.01-2.69,1.3-1,.29-2.05.43-3.13.43-1.6,0-3.01-.26-4.24-.78-1.23-.52-2.26-1.24-3.1-2.17-.84-.93-1.47-2.03-1.9-3.3-.42-1.27-.64-2.67-.64-4.2s.22-2.87.65-4.15c.43-1.28,1.08-2.39,1.92-3.33.85-.94,1.89-1.67,3.11-2.2,1.23-.53,2.64-.8,4.24-.8,1.12,0,2.17.14,3.15.4.98.27,1.86.69,2.63,1.24.77.56,1.4,1.28,1.9,2.16s.8,1.92.91,3.14h-4.05c-.21-.98-.71-1.77-1.5-2.34-.79-.58-1.8-.87-3.04-.87-.98,0-1.83.18-2.53.54-.7.36-1.28.84-1.74,1.46-.45.62-.79,1.34-1.01,2.16-.22.82-.33,1.67-.33,2.56Z"/>
      <path class="cls-4" d="m234.47,74.07c1.56,0,2.97.25,4.22.75,1.25.5,2.32,1.21,3.18,2.13.87.92,1.53,2.01,2,3.28.46,1.27.69,2.68.69,4.22s-.23,2.9-.69,4.2c-.46,1.29-1.13,2.41-2,3.36-.87.95-1.93,1.68-3.2,2.21-1.26.53-2.7.79-4.3.77-1.6,0-3.02-.26-4.27-.8-1.24-.53-2.3-1.26-3.15-2.18-.86-.93-1.51-2.03-1.97-3.3-.45-1.27-.68-2.66-.68-4.17s.24-2.96.71-4.24c.47-1.28,1.15-2.39,2.03-3.31.88-.93,1.94-1.64,3.2-2.16,1.25-.51,2.66-.77,4.23-.77Zm-5.85,10.42c0,.89.12,1.73.36,2.53.24.8.6,1.51,1.07,2.13.47.62,1.08,1.11,1.81,1.49.73.38,1.59.57,2.58.59.94.02,1.78-.15,2.52-.51.73-.36,1.34-.85,1.82-1.48.48-.63.85-1.35,1.1-2.17s.38-1.67.38-2.56-.12-1.71-.36-2.52c-.24-.81-.6-1.53-1.07-2.16-.47-.63-1.08-1.12-1.81-1.49-.73-.37-1.59-.55-2.57-.55s-1.81.18-2.55.55c-.73.37-1.34.86-1.82,1.48-.48.62-.84,1.33-1.08,2.13-.24.8-.36,1.64-.36,2.53Z"/>
      <path class="cls-4" d="m252.35,91.11h10.04v3.7h-14.21v-20.49h4.17v16.78Z"/>
      <path class="cls-4" d="m269.95,91.11h10.04v3.7h-14.21v-20.49h4.17v16.78Z"/>
      <path class="cls-4" d="m298.01,74.33v3.73h-10.45v4.77h9.11v3.73h-9.11v4.54h10.45v3.7h-14.64v-20.49h14.64Z"/>
      <path class="cls-4" d="m304.84,84.54c0,.89.11,1.73.33,2.53.22.8.56,1.5,1.03,2.11.46.61,1.05,1.1,1.77,1.46.71.37,1.56.56,2.55.58.6.02,1.18-.05,1.75-.2.57-.15,1.07-.39,1.52-.71.44-.32.81-.73,1.09-1.23.28-.5.45-1.09.51-1.77h-5.15v-3.39h9.26c.02.73,0,1.49-.03,2.26-.04.77-.14,1.52-.3,2.26-.16.73-.4,1.44-.72,2.13-.32.69-.74,1.3-1.26,1.84-.73.77-1.65,1.39-2.75,1.87-1.1.47-2.42.71-3.96.71s-3.02-.26-4.27-.77c-1.24-.51-2.29-1.23-3.13-2.16-.84-.93-1.48-2.03-1.91-3.3-.43-1.27-.65-2.67-.65-4.2s.22-2.99.65-4.28c.43-1.29,1.08-2.4,1.92-3.31.85-.92,1.9-1.63,3.14-2.14,1.24-.51,2.67-.77,4.27-.77,1.1,0,2.15.14,3.15.43,1,.29,1.89.72,2.66,1.3.77.58,1.41,1.3,1.91,2.17s.8,1.88.9,3.04h-4.05c-.19-.98-.73-1.77-1.61-2.37-.88-.6-1.92-.88-3.14-.84-.97.04-1.79.25-2.49.62s-1.26.87-1.71,1.49c-.44.62-.77,1.33-.97,2.13-.2.8-.3,1.63-.3,2.5Z"/>
      <path class="cls-4" d="m337.77,74.33v3.73h-10.45v4.77h9.11v3.73h-9.11v4.54h10.45v3.7h-14.64v-20.49h14.64Z"/>
    </g>
    <g>
      <circle class="cls-1" cx="61.81" cy="4.88" r="4.88"/>
      <circle class="cls-1" cx="49.23" cy="52.83" r="8.25"/>
      <path class="cls-1" d="m49.77,4.74h0c0,1.51-1.13,2.76-2.63,2.95-4.34.54-8.95,1.78-13.7,4.09-11,5.32-19.31,14.09-23.39,24.67-4.13,10.71-3.56,22.47,1.61,33.15,3.89,8.01,10.13,14.32,18.07,18.26,1.32.66,2.14,2.12,1.75,3.54-.37,1.36-1.59,2.19-2.86,2.19-.43,0-.89-.1-1.3-.3-9.24-4.51-16.5-11.81-21.01-21.09C.43,60.01-.22,46.56,4.52,34.3c4.63-11.99,13.99-21.89,26.35-27.87,5.02-2.43,10.25-3.99,15.59-4.65,1.76-.22,3.31,1.18,3.31,2.96Z"/>
      <path class="cls-1" d="m57.91,96.65c-1.33,0-2.54-.9-2.88-2.24-.4-1.59.56-3.2,2.15-3.61,2.62-.66,5.19-1.6,7.64-2.78,17.41-8.44,24.71-29.46,16.27-46.86-7.43-15.33-25.96-21.75-41.28-14.33-2.9,1.41-5.47,3.27-7.64,5.52-1.14,1.18-3.02,1.21-4.2.07-1.18-1.14-1.21-3.02-.07-4.2,2.66-2.76,5.79-5.02,9.32-6.74,18.29-8.85,40.36-1.19,49.22,17.08,9.86,20.35,1.33,44.93-19.03,54.8-2.81,1.36-5.76,2.44-8.77,3.2-.24.06-.49.09-.73.09Z"/>
      <path class="cls-1" d="m48.73,82.52c-11.07,0-21.71-6.18-26.86-16.79-1-2.08-1.77-4.18-2.29-6.27-.4-1.59.57-3.2,2.15-3.6,1.6-.4,3.2.57,3.6,2.15.43,1.7,1.06,3.43,1.88,5.14,5.73,11.82,20.03,16.78,31.87,11.05,5.02-2.44,8.8-6.68,10.63-11.95,1.83-5.27,1.5-10.94-.94-15.97l-.08-.15c-.79-1.43-.28-3.24,1.16-4.04s3.24-.28,4.04,1.16c.1.17.19.35.27.52,3.09,6.36,3.52,13.64,1.17,20.42-2.35,6.77-7.2,12.22-13.65,15.35-4.17,2.02-8.59,2.98-12.95,2.98Z"/>
      <circle class="cls-1" cx="22.97" cy="43.7" r="4.88"/>
      <circle class="cls-1" cx="42.87" cy="94.99" r="4.88"/>
    </g>
  </g>
  <g>
    <g>
      <path class="cls-3" d="m1.38,150.34v-11.63h4.37c.88,0,1.64.13,2.28.4.64.27,1.14.69,1.5,1.27s.53,1.34.53,2.29-.2,1.65-.59,2.25c-.39.6-.93,1.05-1.61,1.36-.68.3-1.46.45-2.33.45h-2.09v3.6H1.38Zm2.06-5.44h2.06c.76,0,1.36-.18,1.83-.54s.69-.93.69-1.71c0-.68-.19-1.19-.58-1.54-.38-.34-.98-.52-1.78-.52h-2.22v4.31Z"/>
      <path class="cls-3" d="m17.41,150.47c-1.19,0-2.21-.25-3.05-.76-.84-.5-1.48-1.21-1.92-2.1-.44-.9-.67-1.92-.67-3.08s.22-2.21.67-3.1c.45-.89,1.1-1.59,1.94-2.1s1.86-.76,3.06-.76,2.21.25,3.05.76c.84.5,1.48,1.2,1.93,2.1.45.89.67,1.92.67,3.08s-.22,2.18-.67,3.08c-.44.9-1.09,1.61-1.94,2.12-.85.52-1.88.77-3.08.77Zm.03-1.91c.83,0,1.51-.19,2.04-.58.53-.38.91-.88,1.16-1.5.25-.61.37-1.27.37-1.96,0-.53-.07-1.03-.21-1.51-.14-.48-.35-.92-.64-1.3-.29-.38-.66-.69-1.11-.91s-.99-.34-1.61-.34c-.82,0-1.5.19-2.03.58-.53.38-.92.88-1.18,1.5-.25.61-.38,1.28-.38,1.99s.13,1.36.38,1.97c.25.61.64,1.11,1.18,1.49s1.21.57,2.03.57Z"/>
      <path class="cls-3" d="m27.15,150.34l-2.96-11.63h2.3l2.24,9.49,2.2-9.49h2.8l2.2,9.49,2.2-9.49h2.19l-2.94,11.63h-2.89l-2.19-9.31-2.2,9.31h-2.94Z"/>
      <path class="cls-3" d="m42.16,150.34v-11.63h8.21v1.87h-6.15v3.06h5.34v1.84h-5.34v2.98h6.15v1.87h-8.21Z"/>
      <path class="cls-3" d="m52.73,150.34v-11.63h4.59c.59,0,1.15.06,1.68.17.53.11.99.31,1.4.59s.72.66.95,1.14.35,1.08.35,1.79c0,.59-.1,1.11-.31,1.56s-.5.83-.86,1.13c-.37.31-.8.54-1.31.71l2.55,4.52h-2.3l-2.29-4.19h-2.38v4.19h-2.06Zm2.06-6.02h2.25c.37,0,.71-.03,1.03-.09s.59-.16.82-.3c.24-.14.42-.34.54-.58.13-.25.2-.56.21-.95,0-.46-.1-.82-.29-1.09-.19-.26-.47-.45-.82-.56s-.78-.16-1.27-.16h-2.47v3.73Z"/>
      <path class="cls-3" d="m64.31,150.34v-11.63h8.21v1.87h-6.15v3.06h5.34v1.84h-5.34v2.98h6.15v1.87h-8.21Z"/>
      <path class="cls-3" d="m74.88,150.34v-11.63h4.29c1.22,0,2.25.23,3.09.7.84.47,1.49,1.13,1.93,2.01.44.87.67,1.92.67,3.13s-.22,2.23-.65,3.09c-.43.87-1.07,1.53-1.92,2-.84.47-1.88.7-3.11.7h-4.31Zm2.06-1.87h2.2c.87,0,1.56-.17,2.1-.5.53-.33.92-.79,1.17-1.38.25-.59.37-1.27.37-2.05s-.12-1.43-.36-2.02c-.24-.59-.63-1.06-1.16-1.41-.53-.34-1.23-.52-2.1-.52h-2.22v7.88Z"/>
      <path class="cls-3" d="m92.21,150.34v-11.63h4.77c.54,0,1.03.05,1.49.14.46.09.85.25,1.18.48.33.23.59.54.78.92.19.38.28.86.28,1.43,0,.53-.12,1.01-.36,1.44-.24.43-.6.76-1.07.98.64.16,1.12.48,1.46.95s.51,1.07.51,1.82c0,.67-.12,1.22-.37,1.67-.25.44-.59.8-1.02,1.06-.43.26-.93.45-1.5.57-.57.12-1.18.17-1.83.17h-4.33Zm2.06-6.76h2.17c.34,0,.65-.03.92-.1.27-.07.51-.17.71-.3.2-.14.35-.31.46-.51s.16-.45.16-.75c0-.38-.09-.67-.26-.86-.18-.19-.41-.32-.72-.38s-.64-.09-1.01-.09h-2.43v2.99Zm0,4.88h2.45c.31,0,.61-.02.9-.07.3-.04.57-.12.81-.23.24-.11.43-.27.57-.49.14-.21.21-.49.21-.83,0-.31-.06-.56-.16-.76-.11-.2-.26-.35-.45-.47-.19-.11-.42-.2-.68-.25-.26-.05-.54-.07-.82-.07h-2.81v3.16Z"/>
      <path class="cls-3" d="m106.57,150.34v-4.34l-4.26-7.28h2.38l2.93,5.33,2.93-5.33h2.33l-4.26,7.27v4.36h-2.06Z"/>
    </g>
    <g>
      <g>
        <polygon class="cls-2" points="155.92 133.95 153.82 137.68 151.71 133.95 153.82 130.21 155.92 133.95"/>
        <path class="cls-3" d="m156.94,153.48c2.99-2.65,5.14-3.97,7.09-5.13,3.77-2.23,5.52-5.28,5.52-8.56-1.75,3.28-3.51,5.35-6.19,7.37-2.3,1.73-4.69,3.54-6.99,5.84-.51.51-2.52,2.52-3.03,3.03-1.62,1.62-3,3.29-4.28,4.94.31.2.63.38.97.54.92-1.4,2.07-2.98,3.79-4.92.21-.24,2.89-2.92,3.12-3.12m-1.31-1.12c4.43-3.95,6.22-5.58,7.05-6.41,3.72-3.72,6.88-8.04,6.88-12,0-2.22-1.07-4.65-1.9-5.48,0,0,.14.73.14,1.75,0,3.74,0,7.53-5.87,14.41-.82.96-2.69,2.97-6.86,7.23-.48.49-2.4,2.41-2.89,2.89-2.16,2.12-3.74,3.65-4.9,4.74.28.31.58.59.89.86,1.01-1.11,2.45-2.71,4.52-5.03.46-.52,2.42-2.47,2.94-2.94m5.59-9c3.92-5.62,4.83-9.41,4.83-13.15,0-4.53-2.63-7.52-3.57-7.52.75,2.15,1.09,4.88,1.09,7.52,0,3.74-.88,7.66-3.22,11.61-1.86,3.15-3.98,6.22-6.54,8.81-.47.48-2.37,2.38-2.86,2.86-1.53,1.51-3.22,2.86-5,4.1.19.37.41.72.64,1.06,1.71-1.44,3.34-3.02,4.9-4.61.47-.48,2.38-2.39,2.86-2.86,2.48-2.42,4.92-5.02,6.86-7.81m-7.4,13.25c1.71,1.94,2.87,3.52,3.79,4.92.33-.16.66-.34.97-.54-1.28-1.65-2.66-3.32-4.28-4.94-.51-.51-2.52-2.52-3.03-3.03-2.3-2.3-4.69-4.11-6.99-5.84-2.69-2.02-4.44-4.09-6.19-7.37,0,3.28,1.75,6.33,5.52,8.56,1.95,1.15,4.1,2.48,7.09,5.13.24.21,2.92,2.89,3.12,3.12m1.12-1.31c2.07,2.32,3.51,3.92,4.52,5.03.32-.26.62-.55.89-.86-1.16-1.1-2.74-2.62-4.9-4.74-.49-.48-2.41-2.4-2.89-2.89-4.17-4.25-6.04-6.26-6.86-7.23-5.87-6.88-5.87-10.68-5.87-14.41,0-1.02.14-1.75.14-1.75-.83.83-1.9,3.27-1.9,5.48,0,3.96,3.15,8.28,6.88,12,.83.83,2.62,2.46,7.05,6.41.52.46,2.47,2.42,2.94,2.94m-1.67-4.13c.48.47,2.39,2.38,2.86,2.86,1.56,1.59,3.19,3.17,4.9,4.61.24-.34.45-.69.64-1.06-1.78-1.24-3.47-2.59-5-4.1-.48-.47-2.38-2.37-2.86-2.86-2.56-2.6-4.67-5.66-6.54-8.81-2.33-3.95-3.22-7.87-3.22-11.61,0-2.64.34-5.37,1.09-7.52-.94,0-3.57,2.99-3.57,7.52,0,3.74.91,7.53,4.83,13.15,1.94,2.79,4.38,5.39,6.86,7.81"/>
      </g>
      <g>
        <path class="cls-3" d="m188.61,141.81h0c-.15-.07-.3-.13-.45-.2-1.77-.76-3.3-1.42-3.3-3.2s1.43-3.1,3.55-3.1c1.43,0,2.3.37,3.1,1.33l.07.08v-.11c.09-.78.01-1.47.01-1.47v-.03s-.03,0-.03,0c-.47-.14-1.72-.47-3.15-.47-3.82,0-5.55,2.14-5.55,4.14,0,2.15,1.27,3.79,3.77,4.89.3.13.62.26.95.39,1.78.7,3.61,1.43,3.61,3.45,0,1.36-1.13,3.38-3.57,3.38-1.7,0-3.27-.67-4.69-1.98l-.07-.06v.09s-.07.94-.01,1.65v.02s.02.01.02.01c.81.47,2.59.94,4.75.94,4.11,0,5.57-2.47,5.57-4.58,0-2.92-2.36-4.2-4.57-5.17"/>
        <path class="cls-3" d="m202.83,134.64c-2.74,0-4.18.15-5.5.39h-.04s0,.14,0,.14c0,.02.38,1.68.38,4.37v11.57s1.26-.03,2.34-.02c.72,0,1.61.02,2.89.02,4.53,0,8.63-3.68,8.63-8.21,0-2.21-.84-4.27-2.36-5.78-1.59-1.59-3.84-2.46-6.34-2.46m-3.21.9c.17-.05.92-.22,2.36-.22,4.53,0,7.46,2.97,7.46,7.57,0,4.35-2.68,7.39-6.51,7.41h-3.17v-10.77c0-2.6-.11-3.77-.14-3.99"/>
        <path class="cls-3" d="m226.41,144.81c0,2.15-.3,3.66-.92,4.62-.63.98-1.63,1.45-3.06,1.45-3.16,0-4.57-1.87-4.57-6.07v-5.29c0-2.27-.24-4.36-.24-4.38v-.04h-2.24l.02.06s.38,1.43.38,4.36v5.29c0,4.48,2.14,6.75,6.37,6.75s6.36-2.14,6.36-6.75v-9.71h-2.09v9.71Z"/>
      </g>
      <g>
        <path class="cls-3" d="m250.92,144.81c0,4.13-1.42,6.14-4.34,6.14-3.31,0-4.92-2.01-4.92-6.14v-5.29c0-2.28-.24-4.36-.24-4.39v-.08h-1.94l.03.11s.37,1.43.37,4.35v5.29c0,4.51,2.15,6.79,6.41,6.79s6.4-2.16,6.4-6.79v-9.75h-1.78v9.75Z"/>
        <path class="cls-3" d="m265.33,148.5v-5.4c0-2.32-1.93-4.13-4.39-4.13-1.32,0-2.56.58-3.47,1.61v-1.38h-.09c-.79,0-1.98.11-1.99.11h-.08v.25s.03.03.03.03c.01.02.35.4.35,3.21v8.33h1.78v-9.6c.73-1.22,1.84-1.93,3.04-1.93,2.04,0,3.03,1.39,3.03,4.26v7.26h2.2l-.05-.12s-.36-.94-.36-2.51"/>
        <path class="cls-3" d="m267.92,139.55s.38,1.67.38,4.35v7.23h1.78v-11.7h-2.18l.03.11Z"/>
        <path class="cls-3" d="m269.19,135.06c-.66,0-1.19.53-1.19,1.19s.53,1.19,1.19,1.19,1.19-.53,1.19-1.19-.53-1.19-1.19-1.19"/>
        <path class="cls-3" d="m281.05,139.55s.11.52,0,1.37c-.1.76-.34,1.57-.79,2.62-1.87,4.35-2.05,4.73-2.18,5.01-.04.09-.08.16-.16.35-.46-1.05-1.42-3.21-2.34-5.36-1.09-2.54-1.3-3.72-1.15-3.96l.09-.14h-2.7l.06.13s.89,1.96,1.8,4.04c.18.4.61,1.41,1.14,2.62.75,1.73,1.67,3.88,2.31,5.32l.02.05h.67l3.42-7.99c1.16-2.72,1.84-4.03,1.85-4.05l.07-.13h-2.11l.02.11Z"/>
        <path class="cls-3" d="m290.17,138.97c-3.48,0-6.32,2.83-6.32,6.32s2.83,6.32,6.32,6.32c3.13,0,4.72-1.75,4.74-1.76l.02-.02v-.03c.05-.54,0-1.58,0-1.63v-.34s-.17.3-.17.3c-.51.99-2.38,2.83-4.59,2.83-2.37,0-4.45-2.65-4.45-5.67,0-.03,0-.06,0-.09h6.63c1.67-.01,2.97-.37,2.98-.37l.06-.02.02-.2c.03-.34.05-.5.05-.97,0-2.58-2.37-4.68-5.29-4.68m-.17.65h.03c1.05,0,1.97.42,2.64,1.2.77.89,1.13,2.17.96,3.44-.18.06-.84.28-1.62.28h-6.26c.27-2.91,2-4.93,4.24-4.93"/>
        <path class="cls-3" d="m302.87,138.97h-.09c-1.2,0-2.22.53-3.03,1.58v-1.34h-.09c-.79,0-1.98.11-1.99.11h-.08v.25s.03.03.03.03c.01.02.35.4.35,3.21v8.33h1.78v-8.45c0-1.77,1.56-2.6,2.61-2.6.98,0,1.66.55,1.97,1.06l.07.11.08-.11s.49-.66.71-1.6l.02-.07-.07-.03c-.61-.28-1.47-.46-2.27-.48"/>
        <path class="cls-3" d="m310.97,144.17l-.13-.05-.13-.06c-1.48-.64-2.54-1.1-2.54-2.38.03-1.29,1.22-2.06,2.36-2.06s2.27.74,2.64,1.42l.14.26.03-.29c.05-.55,0-1.44,0-1.48v-.05s-.05-.02-.05-.02c-.63-.29-1.53-.48-2.36-.48-2.83,0-4.36,1.53-4.36,2.96,0,1.55.82,2.58,2.73,3.44.17.08.34.15.52.23,1.5.65,3.06,1.33,3.06,2.9,0,.59-.26,1.22-.71,1.67-.36.36-1,.78-2.04.78-2.19,0-3.68-2.55-3.84-2.84l-.15-.27-.02.31s-.05,1.02,0,1.63v.02s.02.02.02.02c.01.02,1.26,1.78,4,1.78,1.49,0,2.69-.42,3.47-1.21.63-.64.96-1.49.95-2.41,0-2.09-1.77-3.03-3.58-3.82"/>
        <path class="cls-3" d="m317.76,135.06c-.66,0-1.19.53-1.19,1.19s.53,1.19,1.19,1.19,1.19-.53,1.19-1.19-.53-1.19-1.19-1.19"/>
        <path class="cls-3" d="m316.49,139.55s.38,1.67.38,4.35v7.23h1.78v-11.7h-2.18l.03.11Z"/>
        <path class="cls-3" d="m323.79,136.76l-.99.41v.06c0,1.22-.98,2.21-2.17,2.21h-.08l-.11.65h.11s.67.02,1.46.02v6.57c0,3.43.73,4.42,2.37,5.34l.03.02h.04c.5-.16.81-.41.82-.42l.12-.1-.15-.05c-.06-.02-1.45-.51-1.45-2.96v-8.32c.71.07,1.16.18,1.62.3l.13.03.03-.07s.15-.35.15-.87l.13-.13h-2.06v-2.68Z"/>
        <path class="cls-3" d="m335.66,139.44l.02.11s.11.52,0,1.37c-.1.77-.34,1.58-.79,2.62-1.87,4.36-2.05,4.74-2.18,5.01-.04.09-.08.16-.16.34-.46-1.05-1.42-3.21-2.34-5.36-1.09-2.54-1.3-3.72-1.15-3.96l.09-.14h-2.7l.06.13s.89,1.96,1.8,4.04c.17.4.6,1.39,1.12,2.59.68,1.58,1.52,3.52,2.14,4.95l-.44,1.01c-.53,1.22-1.91,2.38-3.21,2.71l-.18.05.15.11s.82.63,1.8.9h.05s.04-.02.04-.02c.88-.77,1.79-2.23,2.69-4.35l3.4-7.94c1.16-2.72,1.84-4.03,1.85-4.05l.07-.13h-2.11Z"/>
      </g>
    </g>
  </g>
</svg>